Coordinates
version=1
nRows=8
nColumns=63
inDegrees=yes

Units are S.I. units (second, meters, Newtons, ...)
If the header above contains a line with 'inDegrees', this indicates whether rotational values are in degrees (yes) or radians (no).

endheader
time	pelvis_tilt	pelvis_list	pelvis_rotation	pelvis_tx	pelvis_ty	pelvis_tz	hip_flexion_r	hip_adduction_r	hip_rotation_r	knee_angle_r	knee_angle_r_beta	ankle_angle_r	subtalar_angle_r	mtp_angle_r	hip_flexion_l	hip_adduction_l	hip_rotation_l	knee_angle_l	knee_angle_l_beta	ankle_angle_l	subtalar_angle_l	mtp_angle_l	L5_S1_Flex_Ext	L5_S1_Lat_Bending	L5_S1_axial_rotation	L4_L5_Flex_Ext	L4_L5_Lat_Bending	L4_L5_axial_rotation	L3_L4_Flex_Ext	L3_L4_Lat_Bending	L3_L4_axial_rotation	L2_L3_Flex_Ext	L2_L3_Lat_Bending	L2_L3_axial_rotation	L1_L2_Flex_Ext	L1_L2_Lat_Bending	L1_L2_axial_rotation	L1_T12_Flex_Ext	L1_T12_Lat_Bending	L1_T12_axial_rotation	Abs_r3	Abs_r2	Abs_r1	Abs_t1	Abs_t2	neck_flexion	neck_bending	neck_rotation	arm_flex_r	arm_add_r	arm_rot_r	elbow_flex_r	pro_sup_r	wrist_flex_r	wrist_dev_r	arm_flex_l	arm_add_l	arm_rot_l	elbow_flex_l	pro_sup_l	wrist_flex_l	wrist_dev_l
      7.50000000	      0.53374855	      7.73163870	    -30.58850279	     -1.75406407	      0.85389298	      0.34920637	     -5.29617012	     -7.75072256	     23.32028088	     12.80487036	      0.22348715	     15.95458407	    -17.44943861	      0.00000000	     21.62572098	    -10.41463168	    -31.05217042	     31.62260686	      0.55191861	     -0.44633039	    -18.76934587	      0.00000000	      0.00426628	     -0.94835113	      3.95304503	      0.00792291	     -1.26130700	      4.20011035	      0.00700907	     -2.30582094	      4.20011035	      0.00487593	     -2.30582094	      3.45891440	      0.00396167	     -1.93387763	      3.21184909	      0.00243775	     -1.46899590	      2.96478378	      0.03047360	    -10.72793766	     21.98565056	      0.00000000	      0.00000000	     -0.00000000	      0.00000000	     -0.00000000	     -5.16800830	      3.64042105	    -10.48128688	     27.28097535	     29.61688198	      0.00000000	      5.00000014	    -10.44071612	      2.47864294	    -25.57089083	     29.86417541	     32.21608701	      0.00000000	      5.00000014
      7.53333333	      0.53953690	      7.72564292	    -30.63915564	     -1.75407239	      0.85391644	      0.34923615	     -5.31283775	     -7.76857898	     23.28254852	     12.75936572	      0.22269294	     15.97299072	    -17.33723828	      0.00000000	     21.58412822	    -10.42969678	    -31.13711546	     31.58511587	      0.55126427	     -0.45854073	    -18.76238763	      0.00000000	      0.00417918	     -0.94751061	      3.96292548	      0.00776116	     -1.26018910	      4.21060832	      0.00686598	     -2.30377729	      4.21060832	      0.00477639	     -2.30377729	      3.46755979	      0.00388079	     -1.93216363	      3.21987695	      0.00238799	     -1.46769393	      2.97219411	      0.02985150	    -10.71842947	     22.04060262	      0.00000000	      0.00000000	     -0.00000000	      0.00000000	     -0.00000000	     -5.16875656	      3.65816881	    -10.70832928	     27.26923028	     30.42463062	      0.00000000	      5.00000014	    -10.45549359	      2.49041078	    -25.65117497	     29.91025047	     32.91559005	      0.00000000	      5.00000014
      7.56666667	      0.52217572	      7.71862343	    -30.49568419	     -1.75397574	      0.85388545	      0.34916202	     -5.34695919	     -7.73272713	     23.21566583	     12.74654925	      0.22246925	     15.92128534	    -17.47104730	      0.00000000	     21.65193669	    -10.39860409	    -30.95249301	     31.62137520	      0.55189711	     -0.44594718	    -18.77710458	      0.00000000	      0.00541924	     -0.94724499	      3.93484156	      0.01006407	     -1.25983584	      4.18076916	      0.00890327	     -2.30313147	      4.18076916	      0.00619365	     -2.30313147	      3.44298637	      0.00503231	     -1.93162198	      3.19705877	      0.00309655	     -1.46728249	      2.95113117	      0.03870908	    -10.71542478	     21.88440831	      0.00000000	      0.00000000	     -0.00000000	      0.00000000	     -0.00000000	     -5.17768640	      3.66040222	    -10.63905196	     27.26324408	     30.42807156	      0.00000000	      5.00000014	    -10.47710306	      2.49285510	    -25.73838612	     29.92789978	     32.95109930	      0.00000000	      5.00000014
      7.60000000	      0.53337025	      7.71558024	    -30.54598405	     -1.75400791	      0.85390332	      0.34918176	     -5.33777931	     -7.73976754	     23.26744730	     12.75969929	      0.22269876	     15.94825949	    -17.45697666	      0.00000000	     21.61996399	    -10.40942706	    -31.00534162	     31.61010576	      0.55170042	     -0.45387626	    -18.76734640	      0.00000000	      0.00412754	     -0.94666872	      3.94540308	      0.00766526	     -1.25906939	      4.19199078	      0.00678114	     -2.30173032	      4.19199078	      0.00471737	     -2.30173032	      3.45222770	      0.00383283	     -1.93044685	      3.20564001	      0.00235848	     -1.46638984	      2.95905231	      0.02948261	    -10.70890587	     21.94314833	      0.00000000	      0.00000000	     -0.00000000	      0.00000000	     -0.00000000	     -5.16500665	      3.66864035	    -10.48649417	     27.30125582	     27.95145085	      0.00000000	      5.00000014	    -10.46474208	      2.47088867	    -25.31771649	     29.93008265	     30.66723384	      0.00000000	      5.00000014
      7.63333333	      0.53458489	      7.72069746	    -30.59180588	     -1.75405362	      0.85390423	      0.34920284	     -5.31155519	     -7.74470768	     23.31474097	     12.78832785	      0.22319843	     15.94855041	    -17.44150445	      0.00000000	     21.60907570	    -10.42293319	    -31.06308676	     31.61035868	      0.55170484	     -0.44271035	    -18.76482605	      0.00000000	      0.00397142	     -0.94653563	      3.95322137	      0.00737532	     -1.25889238	      4.20029770	      0.00652465	     -2.30140672	      4.20029770	      0.00453894	     -2.30140672	      3.45906870	      0.00368786	     -1.93017545	      3.21199236	      0.00226927	     -1.46618368	      2.96491603	      0.02836746	    -10.70740030	     21.98663128	      0.00000000	      0.00000000	     -0.00000000	      0.00000000	     -0.00000000	     -5.16350557	      3.62098946	    -10.11530970	     27.30706344	     27.03586027	      0.00000000	      5.00000014	    -10.45062398	      2.41150449	    -24.92323676	     29.85499894	     29.63095643	      0.00000000	      5.00000014
      7.66666667	      0.54111474	      7.73505689	    -30.46458420	     -1.75393889	      0.85392127	      0.34911253	     -5.39449376	     -7.76979195	     23.16896991	     12.67746868	      0.22126357	     15.91383074	    -17.43760169	      0.00000000	     21.64783624	    -10.35172933	    -30.89056606	     31.61075016	      0.55171167	     -0.48607155	    -18.80101643	      0.00000000	      0.00351868	     -0.94895468	      3.92769263	      0.00653454	     -1.26210972	      4.17317342	      0.00578084	     -2.30728841	      4.17317342	      0.00402150	     -2.30728841	      3.43673105	      0.00326745	     -1.93510838	      3.19125026	      0.00201057	     -1.46993080	      2.94576947	      0.02513358	    -10.73476513	     21.84464808	      0.00000000	      0.00000000	     -0.00000000	      0.00000000	     -0.00000000	     -5.16256612	      3.64595062	    -10.21710101	     27.27779277	     27.58199022	      0.00000000	      5.00000014	    -10.48352381	      2.42051633	    -25.06111403	     29.93572442	     30.08001933	      0.00000000	      5.00000014
      7.70000000	      0.51068090	      7.68332491	    -30.49447766	     -1.75405535	      0.85389500	      0.34917247	     -5.33233957	     -7.68251493	     23.21728913	     12.77501626	      0.22296610	     15.91296135	    -17.50920287	      0.00000000	     21.65787717	    -10.44699596	    -30.93752695	     31.64624113	      0.55233110	     -0.43074987	    -18.78206511	      0.00000000	      0.00374441	     -0.94320047	      3.94003822	      0.00695375	     -1.25445663	      4.18629060	      0.00615169	     -2.29329763	      4.18629060	      0.00427949	     -2.29329763	      3.44753344	      0.00347706	     -1.92337440	      3.20128105	      0.00213956	     -1.46101753	      2.95502866	      0.02674596	    -10.66967239	     21.91331054	      0.00000000	      0.00000000	     -0.00000000	      0.00000000	     -0.00000000	     -5.16298276	      3.62162104	    -10.15521800	     27.29737382	     27.55738336	      0.00000000	      5.00000014	    -10.45849160	      2.43612600	    -25.09201431	     29.93179321	     29.83913788	      0.00000000	      5.00000014
      7.73333333	      0.52927184	      7.70213190	    -30.58150751	     -1.75404815	      0.85389830	      0.34919056	     -5.33804173	     -7.73721399	     23.29789322	     12.74202386	      0.22239027	     15.95003714	    -17.39370297	      0.00000000	     21.61334294	    -10.44046254	    -31.04023465	     31.61835718	      0.55184444	     -0.45692265	    -18.78508226	      0.00000000	      0.00364557	     -0.94498982	      3.95147551	      0.00677019	     -1.25683647	      4.19844273	      0.00598931	     -2.29764826	      4.19844273	      0.00416652	     -2.29764826	      3.45754107	      0.00338528	     -1.92702325	      3.21057385	      0.00208308	     -1.46378924	      2.96360663	      0.02603994	    -10.68991389	     21.97692135	      0.00000000	      0.00000000	     -0.00000000	      0.00000000	     -0.00000000	     -5.15849567	      3.60630136	    -10.08601268	     27.29868182	     27.33916333	      0.00000000	      5.00000014	    -10.45884863	      2.49278918	    -25.27714052	     29.96536474	     29.33735353	      0.00000000	      5.00000014
